<svg width="200" height="27" viewBox="0 0 200 27" fill="none" xmlns="http://www.w3.org/2000/svg">
<path fill-rule="evenodd" clip-rule="evenodd" d="M0 2.69019V5.95022H7.52479V25.9784H11.0935V5.95022H18.6186V2.69019H0Z" fill="#F8FBF8"/>
<path fill-rule="evenodd" clip-rule="evenodd" d="M24.9387 25.9786H21.5639V1.05981H24.9387V12.5487H25.2101C26.2575 9.36628 28.5461 7.38618 31.8427 7.38618C35.7991 7.38618 37.6224 10.026 37.6224 13.9849V25.9786H34.248V14.7998C34.248 12.3162 33.1618 10.4528 30.3694 10.4528C27.0722 10.4528 24.9387 12.5099 24.9387 15.615V25.9786Z" fill="#F8FBF8"/>
<path fill-rule="evenodd" clip-rule="evenodd" d="M54.8036 21.2431H54.4931C53.4845 24.4647 51.0799 26.4444 47.9381 26.4444C43.8656 26.4444 42.0424 23.7661 42.0424 19.8069V7.85205H45.4168V18.992C45.4168 21.5151 46.4642 23.3389 49.3733 23.3389C52.5926 23.3389 54.7261 21.3207 54.7261 18.2159V7.85205H58.1002V25.9784H54.8036V21.2431Z" fill="#F8FBF8"/>
<path fill-rule="evenodd" clip-rule="evenodd" d="M66.2058 25.9786H62.8311V7.85223H66.1283V12.5488H66.4773C67.4855 9.32719 69.8905 7.38623 73.0326 7.38623C77.0663 7.38623 78.8895 10.026 78.8895 13.9849V25.9786H75.5151V14.7998C75.5151 12.3162 74.5062 10.4529 71.5974 10.4529C68.3781 10.4529 66.2058 12.5099 66.2058 15.6151V25.9786Z" fill="#F8FBF8"/>
<mask id="mask0_1_663" style="mask-type:luminance" maskUnits="userSpaceOnUse" x="82" y="1" width="18" height="26">
<path fill-rule="evenodd" clip-rule="evenodd" d="M82.3394 1.05981H99.4452V26.4445H82.3394V1.05981Z" fill="white"/>
</mask>
<g mask="url(#mask0_1_663)">
<path fill-rule="evenodd" clip-rule="evenodd" d="M96.0708 17.6721V16.2747C96.0708 12.8207 94.0151 10.4528 90.7567 10.4528C87.3432 10.4528 85.6757 12.5487 85.6757 16.9736C85.6757 21.3208 87.3044 23.4167 90.7567 23.4167C93.9764 23.4167 96.0708 21.2041 96.0708 17.6721ZM96.0708 21.1271H95.8378C94.9455 24.232 92.6957 26.4446 89.2828 26.4446C84.861 26.4446 82.3394 23.1062 82.3394 16.9736C82.3394 10.8024 84.9385 7.38618 89.3603 7.38618C92.929 7.38618 94.9455 9.55998 95.8378 12.6655H96.0708V1.05981H99.4452V25.9786H96.0708V21.1271Z" fill="#F8FBF8"/>
</g>
<path fill-rule="evenodd" clip-rule="evenodd" d="M106.464 15.4601H117.053C116.897 12.0054 115.307 10.0647 111.971 10.0647C108.791 10.0647 106.851 11.8505 106.464 15.4601ZM103.05 17.0512C103.05 10.9964 106.58 7.38647 112.049 7.38647C117.479 7.38647 120.194 10.7248 120.194 15.7317C120.194 16.275 120.156 17.0903 120.078 17.9055H106.425C106.696 21.5924 108.636 23.611 112.127 23.611C115.385 23.611 116.483 22.2293 116.958 20.7779H120.039C119.147 24.2322 116.82 26.4057 112.127 26.4057C106.502 26.4057 103.05 23.0677 103.05 17.0512Z" fill="#F8FBF8"/>
<path fill-rule="evenodd" clip-rule="evenodd" d="M123.839 25.9785V7.85215H127.097V12.9759L127.368 13.0147C128.3 9.05579 130.162 7.65845 132.954 7.65845H133.652V11.3845H132.721C128.803 11.3845 127.214 12.9371 127.214 17.0123V25.9785H123.839Z" fill="#F8FBF8"/>
<path fill-rule="evenodd" clip-rule="evenodd" d="M137.11 7.85227V6.68776C137.11 3.00053 139.088 0.55542 143.122 0.55542C144.479 0.55542 145.41 0.710312 146.147 0.865868L145.992 3.38859C145.139 3.27217 144.402 3.15542 143.626 3.15542C141.415 3.15542 140.484 4.39787 140.484 6.76537V7.85227H145.992V10.647H140.484V25.9786H137.11V10.647V7.85227Z" fill="#F8FBF8"/>
<path fill-rule="evenodd" clip-rule="evenodd" d="M150.917 16.8184C150.917 20.8937 152.74 23.4944 156.58 23.4944C160.42 23.4944 162.321 20.8937 162.321 16.8184C162.321 12.7428 160.343 10.2973 156.619 10.2973C152.895 10.2973 150.917 12.7428 150.917 16.8184ZM147.543 16.8572C147.543 10.9182 151.111 7.38623 156.619 7.38623C162.088 7.38623 165.695 10.9182 165.695 16.8572C165.695 22.757 162.36 26.4443 156.619 26.4443C150.879 26.4443 147.543 22.757 147.543 16.8572Z" fill="#F8FBF8"/>
<path fill-rule="evenodd" clip-rule="evenodd" d="M171.551 16.8184C171.551 20.8937 173.374 23.4944 177.214 23.4944C181.054 23.4944 182.954 20.8937 182.954 16.8184C182.954 12.7428 180.976 10.2973 177.253 10.2973C173.529 10.2973 171.551 12.7428 171.551 16.8184ZM168.176 16.8572C168.176 10.9182 171.744 7.38623 177.253 7.38623C182.721 7.38623 186.329 10.9182 186.329 16.8572C186.329 22.757 182.993 26.4443 177.253 26.4443C171.512 26.4443 168.176 22.757 168.176 16.8572Z" fill="#F8FBF8"/>
<mask id="mask1_1_663" style="mask-type:luminance" maskUnits="userSpaceOnUse" x="190" y="2" width="10" height="25">
<path fill-rule="evenodd" clip-rule="evenodd" d="M190.19 2.76733H199.538V26.4445H190.19V2.76733Z" fill="white"/>
</mask>
<g mask="url(#mask1_1_663)">
<path fill-rule="evenodd" clip-rule="evenodd" d="M190.19 7.85224V2.76733H193.565V7.85224H199.344V10.6469H193.565V20.1952C193.565 22.2526 194.34 23.3007 196.358 23.3007C197.327 23.3007 198.142 23.1063 199.112 22.8347L199.538 25.8234C198.297 26.2114 197.327 26.4446 195.66 26.4446C191.858 26.4446 190.19 23.9604 190.19 20.5833V10.6469V7.85224Z" fill="#F8FBF8"/>
</g>
</svg>
