<svg width="255" height="33" viewBox="0 0 255 33" fill="none" xmlns="http://www.w3.org/2000/svg">
<path fill-rule="evenodd" clip-rule="evenodd" d="M0 2.72119V6.87664H9.59155V32.4058H14.1404V6.87664H23.7324V2.72119H0Z" fill="#1A191D"/>
<path fill-rule="evenodd" clip-rule="evenodd" d="M31.787 32.4061H27.4854V0.643066H31.787V15.2875H32.133C33.4681 11.231 36.3853 8.70706 40.5873 8.70706C45.6304 8.70706 47.9545 12.0719 47.9545 17.1181V32.4061H43.6532V18.1569C43.6532 14.9912 42.2688 12.616 38.7094 12.616C34.5065 12.616 31.787 15.2381 31.787 19.1961V32.4061Z" fill="#1A191D"/>
<path fill-rule="evenodd" clip-rule="evenodd" d="M69.8552 26.3704H69.4593C68.1737 30.4768 65.1086 33.0003 61.1039 33.0003C55.9129 33.0003 53.5889 29.5864 53.5889 24.5397V9.30127H57.8901V23.501C57.8901 26.717 59.2252 29.0419 62.9333 29.0419C67.0368 29.0419 69.7563 26.4693 69.7563 22.5117V9.30127H74.0571V32.4063H69.8552V26.3704Z" fill="#1A191D"/>
<path fill-rule="evenodd" clip-rule="evenodd" d="M84.3896 32.406H80.0879V9.30103H84.2907V15.2875H84.7356C86.0208 11.1811 89.0863 8.70703 93.0914 8.70703C98.2329 8.70703 100.557 12.0719 100.557 17.1181V32.406H96.2557V18.1569C96.2557 14.9911 94.9697 12.616 91.262 12.616C87.1585 12.616 84.3896 15.238 84.3896 19.1961V32.406Z" fill="#1A191D"/>
<mask id="mask0_624_17" style="mask-type:luminance" maskUnits="userSpaceOnUse" x="104" y="0" width="23" height="33">
<path fill-rule="evenodd" clip-rule="evenodd" d="M104.953 0.643066H126.757V33H104.953V0.643066Z" fill="white"/>
</mask>
<g mask="url(#mask0_624_17)">
<path fill-rule="evenodd" clip-rule="evenodd" d="M122.456 21.8182V20.037C122.456 15.6343 119.836 12.6161 115.683 12.6161C111.332 12.6161 109.206 15.2876 109.206 20.9278C109.206 26.4691 111.282 29.1406 115.683 29.1406C119.787 29.1406 122.456 26.3203 122.456 21.8182ZM122.457 26.2222H122.16C121.022 30.1797 118.154 33.0001 113.804 33.0001C108.168 33.0001 104.954 28.7449 104.954 20.9278C104.954 13.0616 108.267 8.70706 113.903 8.70706C118.452 8.70706 121.022 11.4779 122.16 15.4364H122.457V0.643066H126.758V32.4061H122.457V26.2222Z" fill="#1A191D"/>
</g>
<path fill-rule="evenodd" clip-rule="evenodd" d="M135.703 18.9987H149.201C149.002 14.5951 146.976 12.1214 142.723 12.1214C138.669 12.1214 136.197 14.3976 135.703 18.9987ZM131.353 21.0267C131.353 13.309 135.852 8.70752 142.823 8.70752C149.744 8.70752 153.205 12.9627 153.205 19.3449C153.205 20.0374 153.156 21.0766 153.057 22.1158H135.654C136 26.8153 138.472 29.3883 142.922 29.3883C147.075 29.3883 148.474 27.6271 149.079 25.777H153.008C151.87 30.1802 148.904 32.9506 142.922 32.9506C135.753 32.9506 131.353 28.6958 131.353 21.0267Z" fill="#1A191D"/>
<path fill-rule="evenodd" clip-rule="evenodd" d="M157.85 32.4061V9.3011H162.003V15.8321L162.349 15.8816C163.536 10.8353 165.91 9.0542 169.469 9.0542H170.359V13.8036H169.173C164.178 13.8036 162.152 15.7826 162.152 20.9773V32.4061H157.85Z" fill="#1A191D"/>
<path fill-rule="evenodd" clip-rule="evenodd" d="M174.768 9.30103V7.81667C174.768 3.11669 177.289 0 182.431 0C184.161 0 185.348 0.197435 186.287 0.395716L186.09 3.61133C185.002 3.46294 184.062 3.31412 183.073 3.31412C180.256 3.31412 179.069 4.89784 179.069 7.9156V9.30103H186.09V12.8633H179.069V32.406H174.768V12.8633V9.30103Z" fill="#1A191D"/>
<path fill-rule="evenodd" clip-rule="evenodd" d="M192.367 20.7303C192.367 25.9249 194.691 29.2399 199.586 29.2399C204.48 29.2399 206.903 25.9249 206.903 20.7303C206.903 15.5352 204.381 12.4181 199.635 12.4181C194.889 12.4181 192.367 15.5352 192.367 20.7303ZM188.065 20.7798C188.065 13.2096 192.614 8.70752 199.635 8.70752C206.605 8.70752 211.203 13.2096 211.203 20.7798C211.203 28.3001 206.951 33.0001 199.635 33.0001C192.317 33.0001 188.065 28.3001 188.065 20.7798Z" fill="#1A191D"/>
<path fill-rule="evenodd" clip-rule="evenodd" d="M218.668 20.7303C218.668 25.9249 220.992 29.2399 225.887 29.2399C230.781 29.2399 233.204 25.9249 233.204 20.7303C233.204 15.5352 230.683 12.4181 225.936 12.4181C221.19 12.4181 218.668 15.5352 218.668 20.7303ZM214.366 20.7798C214.366 13.2096 218.915 8.70752 225.936 8.70752C232.906 8.70752 237.505 13.2096 237.505 20.7798C237.505 28.3001 233.253 33.0001 225.936 33.0001C218.618 33.0001 214.366 28.3001 214.366 20.7798Z" fill="#1A191D"/>
<mask id="mask1_624_17" style="mask-type:luminance" maskUnits="userSpaceOnUse" x="242" y="2" width="13" height="32">
<path fill-rule="evenodd" clip-rule="evenodd" d="M242.427 2.81982H254.342V33.0003H242.427V2.81982Z" fill="white"/>
</mask>
<g mask="url(#mask1_624_17)">
<path fill-rule="evenodd" clip-rule="evenodd" d="M242.427 9.30137V2.81982H246.728V9.30137H254.095V12.8637H246.728V25.0345C246.728 27.6569 247.717 28.9929 250.288 28.9929C251.524 28.9929 252.562 28.7452 253.798 28.3989L254.342 32.2085C252.76 32.7032 251.524 33.0004 249.398 33.0004C244.553 33.0004 242.427 29.8338 242.427 25.5291V12.8637V9.30137Z" fill="#1A191D"/>
</g>
</svg>
